# xmcd CD database file
#
# Track frame offsets:
#	150
#	24042
#	51537
#	83337
#	106745
#	129152
#	146042
#
# Disc length: 2341 seconds
#
# Revision: 0
# Processed by: cddbd v1.5.2PL0 Copyright (c) Steve Scherf et al.
# Submitted via: CDex 1.70beta2
#
DISCID=4b092307
DTITLE=Great Jazz Trio - Milestones
DYEAR=1978
DGENRE=Jazz
TTITLE0=Milestones
TTITLE1=Lush Life
TTITLE2=Wave
TTITLE3=Eighty One
TTITLE4=I Remember Clifford
TTITLE5=Hormone
TTITLE6=Mr.Biko
EXTD=YEAR: 1978
EXTT0=
EXTT1=
EXTT2=
EXTT3=
EXTT4=
EXTT5=
EXTT6=
PLAYORDER=
